<?xml version="1.0" standalone="no"?>
<!DOCTYPE svg PUBLIC "-//W3C//DTD SVG 20010904//EN"
 "http://www.w3.org/TR/2001/REC-SVG-20010904/DTD/svg10.dtd">
<svg version="1.0" xmlns="http://www.w3.org/2000/svg"
 width="1084.000000pt" height="1084.000000pt" viewBox="0 0 1084.000000 1084.000000"
 preserveAspectRatio="xMidYMid meet">
<metadata>
Created by potrace 1.11, written by Peter Selinger 2001-2013
</metadata>
<g transform="translate(0.000000,1084.000000) scale(0.100000,-0.100000)"
fill="#000000" stroke="none">
<path d="M3588 8543 l-3 -348 -1602 -3 -1603 -2 0 -810 0 -810 1603 -2 1602
-3 3 -2307 2 -2308 810 0 810 0 0 2310 0 2310 793 -2 792 -3 3 -420 3 -420
1119 -880 1120 -879 0 -303 0 -303 -412 2 -413 3 -3 268 -2 267 -705 0 -705 0
0 -975 0 -975 1830 0 1830 0 0 1354 0 1353 -1125 883 -1125 884 2 175 3 176
413 3 412 2 0 -270 0 -270 710 0 710 0 0 975 0 975 -2622 2 -2623 3 -3 348 -2
347 -810 0 -810 0 -2 -347z"/>
<path d="M5840 8755 l0 -135 140 0 140 0 0 135 0 135 -140 0 -140 0 0 -135z"/>
<path d="M380 3970 l0 -2020 810 0 810 0 0 2020 0 2020 -810 0 -810 0 0 -2020z"/>
</g>
</svg>
